{
    "asset" : {
        "generator" : "Khronos glTF Blender I/O v1.6.16",
        "version" : "2.0"
    },
    "scene" : 0,
    "scenes" : [
        {
            "name" : "Scene",
            "nodes" : [
                0
            ]
        }
    ],
    "nodes" : [
        {
            "mesh" : 0,
            "name" : "box1"
        }
    ],
    "materials" : [
        {
            "name" : "principledshader1",
            "pbrMetallicRoughness" : {
                "metallicFactor" : 0
            }
        }
    ],
    "meshes" : [
        {
            "name" : "Mesh_0",
            "primitives" : [
                {
                    "attributes" : {
                        "POSITION" : 0,
                        "NORMAL" : 1,
                        "TEXCOORD_0" : 2,
                        "COLOR_0" : 3
                    },
                    "indices" : 4,
                    "material" : 0
                }
            ]
        }
    ],
    "accessors" : [
        {
            "bufferView" : 0,
            "componentType" : 5126,
            "count" : 301098,
            "max" : [
                10.387162208557129,
                0.019999999552965164,
                10.387162208557129
            ],
            "min" : [
                -10.053924560546875,
                -0.0009440421126782894,
                -10.053924560546875
            ],
            "type" : "VEC3"
        },
        {
            "bufferView" : 1,
            "componentType" : 5126,
            "count" : 301098,
            "type" : "VEC3"
        },
        {
            "bufferView" : 2,
            "componentType" : 5126,
            "count" : 301098,
            "type" : "VEC2"
        },
        {
            "bufferView" : 3,
            "componentType" : 5123,
            "count" : 301098,
            "normalized" : true,
            "type" : "VEC4"
        },
        {
            "bufferView" : 4,
            "componentType" : 5125,
            "count" : 301098,
            "type" : "SCALAR"
        }
    ],
    "bufferViews" : [
        {
            "buffer" : 0,
            "byteLength" : 3613176,
            "byteOffset" : 0
        },
        {
            "buffer" : 0,
            "byteLength" : 3613176,
            "byteOffset" : 3613176
        },
        {
            "buffer" : 0,
            "byteLength" : 2408784,
            "byteOffset" : 7226352
        },
        {
            "buffer" : 0,
            "byteLength" : 2408784,
            "byteOffset" : 9635136
        },
        {
            "buffer" : 0,
            "byteLength" : 1204392,
            "byteOffset" : 12043920
        }
    ],
    "buffers" : [
        {
            "byteLength" : 13248312,
            "uri" : "floor.bin"
        }
    ]
}
